<svg width="969" height="307" viewBox="0 0 969 307" fill="none" xmlns="http://www.w3.org/2000/svg">
<path d="M20.5784 73.1301C19.3406 73.4214 18.0737 74.4408 17.6368 75.5038C17.4766 75.8678 17.3019 75.9989 16.7922 76.13C15.7874 76.4066 14.9573 77.1348 14.404 78.2124C10.9673 84.9693 9.67121 88.2895 8.53535 93.2115C8.3606 93.9688 7.95285 95.6435 7.61792 96.9249C7.29755 98.2064 7.02087 99.5753 7.0063 99.983C6.99174 100.376 6.80243 101.265 6.584 101.934C6.2345 103.041 6.19081 103.653 6.49662 103.114C6.94805 102.328 8.0111 101.046 8.3606 100.871C9.27802 100.391 9.59839 101.206 10.0644 105.08C10.6469 109.944 11.4915 112.39 13.0497 113.788C13.6904 114.371 14.6515 114.895 14.6515 114.676C14.6515 114.633 14.4185 114.327 14.1418 113.992C13.7778 113.57 13.6322 113.264 13.6322 112.914C13.6322 112.376 13.2827 111.56 13.0497 111.56C12.9768 111.56 12.8749 111.4 12.8167 111.211C12.7293 110.817 13.006 110.162 13.472 109.754C13.6467 109.594 13.7778 109.317 13.7778 109.128C13.7778 108.881 13.8506 108.793 14.0399 108.822C14.2292 108.851 14.3166 108.691 14.4622 108.065C14.5496 107.628 14.637 106.886 14.637 106.42C14.6515 105.677 14.7971 105.386 15.001 105.706C15.0447 105.779 14.9719 106.376 14.8408 107.06C14.535 108.75 14.535 112.259 14.8554 114.036C14.9864 114.793 15.1321 115.637 15.1758 115.885C15.2194 116.147 15.2923 116.366 15.3651 116.366C15.6272 116.366 16.0349 115.929 16.1951 115.477L16.3699 114.982L16.4718 115.448C16.5446 115.769 16.6611 115.929 16.8359 115.929C17.0252 115.929 17.1125 116.089 17.1854 116.599C17.229 116.977 17.2727 121.04 17.2727 125.627V133.986L16.8504 135.544C16.6029 136.418 15.9912 138.675 15.467 140.568C14.1127 145.505 13.1953 150.441 13.1953 152.83C13.1953 153.223 12.5109 156.834 11.6662 160.868L10.1372 168.207L8.4771 171.236C7.57423 172.911 6.78787 174.396 6.72962 174.557C6.65681 174.79 6.78787 174.964 7.25386 175.343C7.60336 175.62 7.93829 175.94 8.0111 176.056C8.08391 176.188 8.46253 176.595 8.84115 176.974C9.3654 177.484 9.67121 177.673 9.97701 177.673C10.2246 177.673 10.4576 177.6 10.5013 177.513C10.5741 177.425 10.6906 177.469 10.8216 177.658C11.142 178.139 11.4769 178.255 12.1031 178.11C12.54 178.008 12.7293 178.037 12.9186 178.197C13.1807 178.43 13.5593 178.343 13.6904 178.022C13.8069 177.717 14.069 177.92 14.069 178.299C14.0545 178.823 13.5885 179.231 12.3798 179.799C11.0401 180.411 9.7877 180.731 7.07912 181.168C4.88021 181.532 3.77347 181.881 3.3366 182.377C2.59393 183.207 1.15226 187.371 0.482392 190.633C-0.158349 193.735 -0.158349 193.59 0.46783 194.099L1.00663 194.551L1.4435 194.23C1.76387 193.997 1.89494 193.954 1.93862 194.099C2.04056 194.39 2.41918 194.711 2.65218 194.711C2.88517 194.711 3.35117 194.07 4.21034 192.541L4.82196 191.463L6.42381 190.779C7.57423 190.284 8.31691 190.065 9.04503 189.993C9.61296 189.934 11.2731 189.745 12.7584 189.585C14.7389 189.352 16.3116 189.265 18.6561 189.265C21.5249 189.265 22.0055 189.294 23.2287 189.599C23.986 189.789 25.0344 190.109 25.5587 190.328L26.5198 190.706L26.6363 193.051C26.7528 195.264 26.7382 195.483 26.3887 197.055C25.2383 202.24 25.2092 205.676 26.3014 214.297C26.6072 216.773 26.8984 219.234 26.9567 219.758C27.1168 221.374 27.3207 222.467 28.1945 226.457C28.675 228.583 29.1264 230.898 29.2284 231.612C29.4177 233.053 29.3158 234.713 28.9954 235.616C28.8206 236.126 28.8352 236.403 29.0828 237.917C29.3886 239.839 29.4323 241.237 29.1993 241.849C29.1119 242.082 29.0536 243.262 29.0536 244.66C29.0682 247.121 28.675 250.251 28.1071 252.232C27.6265 253.936 28.1508 255.858 29.4323 257.11C30.67 258.304 33.3349 259.353 35.1407 259.367C36.1455 259.367 36.4367 259.149 36.859 258.071C38.0094 255.217 38.1842 253.746 37.6163 251.722C36.9755 249.436 36.5095 246.829 36.3348 244.587C36.2474 243.378 36.0144 241.368 35.8251 240.102C35.6358 238.835 35.4756 237.48 35.4756 237.102C35.4756 236.723 35.3445 235.893 35.1844 235.252C34.5436 232.762 34.4126 231.495 34.5873 229.675C34.6747 228.743 34.8057 226.995 34.8931 225.801C34.9805 224.593 35.2863 221.811 35.563 219.612C36.2328 214.443 36.3493 211.239 35.9853 208.254C35.8251 207.001 35.7086 205.123 35.7086 203.667C35.7086 201.468 35.7523 200.914 36.1892 198.643C36.4513 197.245 36.6843 196.08 36.7134 196.051C36.7425 196.021 37.791 196.56 39.0725 197.23C41.6937 198.628 49.703 202.851 50.9116 203.477C52.2659 204.162 53.4892 204.468 55.5861 204.642L57.5666 204.802L58.95 204.133C60.4645 203.404 61.5567 202.473 62.1683 201.409C63.275 199.487 63.4061 195.89 62.5469 190.983C61.1489 182.901 60.1878 178.692 58.7607 174.426C58.0326 172.227 56.5764 168.775 56.1832 168.309C55.8483 167.931 56.0376 167.887 56.6638 168.207C57.4064 168.586 58.0035 168.586 58.12 168.207C58.1928 167.974 58.2656 167.945 58.6005 168.076C58.9063 168.193 59.0229 168.178 59.1685 167.974C59.2704 167.829 59.3578 167.639 59.3578 167.552C59.3578 167.465 58.95 166.839 58.4549 166.154C57.7414 165.178 57.5084 164.727 57.3045 163.912C57.1734 163.344 57.0861 162.848 57.1297 162.776C57.2754 162.543 57.4356 162.703 57.5229 163.183C57.654 163.853 58.8772 166.285 59.3141 166.707C59.5908 166.999 59.6927 167.028 59.9548 166.882C60.2315 166.737 60.2606 166.635 60.1733 166.052C60.1296 165.688 59.8238 164.596 59.518 163.635L58.95 161.873L59.0229 158.451C59.0811 156.062 59.052 154.563 58.9063 153.499C58.6005 151.038 58.6297 150.805 59.6927 147.179C61.5567 140.83 62.7071 135.719 63.3042 131.001C63.4644 129.719 63.6973 128.307 63.8138 127.87C64.0905 126.778 64.076 126.035 63.6537 122.904C63.2896 120.108 61.4839 110.439 60.581 106.463C59.5471 101.905 58.3384 97.886 57.4356 96.0221C56.8239 94.7697 56.2706 94.1727 55.3386 93.7067C54.5522 93.328 54.5085 93.3135 52.6154 93.4154C50.6641 93.5174 50.067 93.6193 47.1691 94.2746C46.2663 94.493 44.9411 94.6969 44.2276 94.7552L42.9169 94.8571L43.2664 93.8523C43.4703 93.2989 43.6305 92.6291 43.6305 92.3669C43.6305 91.7553 43.1936 91.3185 42.5529 91.3185C42.2908 91.3185 41.7665 91.2748 41.3879 91.2311C40.7472 91.1437 40.718 91.1146 40.951 90.867C41.1112 90.6777 41.1695 90.4593 41.1112 90.1535C41.0384 89.804 41.0675 89.7166 41.2714 89.7166C41.6791 89.7166 42.4509 89.1778 42.7568 88.6681C42.9606 88.3332 43.048 87.9837 43.0189 87.5468C42.9752 86.9206 42.9606 86.9061 42.2471 86.6294C41.65 86.3964 41.4753 86.2508 41.2714 85.7848C41.053 85.2751 40.9802 85.2023 40.5433 85.2023C40.019 85.2023 38.9706 85.7848 38.4754 86.3382C38.3153 86.5129 38.1551 86.6585 38.0968 86.6585C38.0531 86.6585 37.9221 86.3382 37.8056 85.945C37.6163 85.2605 37.5871 85.2314 36.8736 85.0275L36.1309 84.8382L36.0872 84.1101C36.0581 83.6587 35.9562 83.3383 35.8251 83.2655C35.7086 83.1927 35.3737 82.683 35.097 82.1005C34.4271 80.8045 33.4806 79.3337 32.6942 78.4454C31.9952 77.659 28.9954 75.2271 28.0488 74.6883C25.7626 73.3923 22.4278 72.6933 20.5784 73.1301ZM28.4566 122.598C28.8061 122.875 29.374 123.53 29.7235 124.069C30.0584 124.593 30.7574 125.685 31.2817 126.486C31.7913 127.287 32.4321 128.147 32.6942 128.409C33.233 128.962 33.4951 129.544 33.8155 130.884C34.1068 132.151 34.0922 133.753 33.7864 134.656C33.4951 135.53 33.1748 135.981 31.2817 138.151C29.5342 140.146 27.8595 142.33 27.2625 143.379C27.0295 143.772 26.2285 144.908 25.4713 145.883C24.3791 147.311 23.986 147.966 23.5345 149.087C22.4423 151.825 22.1365 153.631 21.9909 158.014C21.8453 162.455 22.5297 167.421 24.7869 178.095C25.2966 180.542 25.7043 182.595 25.6897 182.653C25.6606 182.726 25.0344 182.391 24.2918 181.94C23.0685 181.168 22.9375 181.037 22.7918 180.513C22.3258 178.605 21.4521 177.047 20.491 176.406C19.6464 175.838 18.9765 175.736 16.7339 175.824C14.8263 175.911 14.6515 175.896 14.6515 175.663C14.6515 175.532 14.4476 174.76 14.2146 173.96C13.6613 172.096 13.6467 171.12 14.1564 169.911C14.9282 168.091 15.1175 167.363 15.3214 165.484C15.4524 164.13 15.6126 163.314 15.8747 162.717C16.0641 162.251 16.632 160.664 17.1271 159.179C17.8552 156.994 18.4377 155.64 20.2143 152.043C23.8403 144.675 23.9277 144.354 24.6995 135.806C24.7723 134.845 25.0781 132.486 25.3548 130.564C25.9373 126.574 26.1557 124.302 26.1557 122.365V121.011L27.0003 121.55C27.4518 121.841 28.1071 122.307 28.4566 122.598ZM38.8832 166.096C39.3637 166.824 39.4366 167.072 39.7132 168.965C40.1938 172.343 40.7908 174.571 41.8539 177.018C42.5529 178.634 46.3828 188.158 46.3245 188.158C46.31 188.158 45.4653 187.765 44.4751 187.284C42.4073 186.279 40.3977 185.711 38.5046 185.58C37.4124 185.507 37.2231 185.449 37.2231 185.231C37.2231 185.1 37.325 184.139 37.4415 183.105C37.8201 179.755 38.0968 174.964 38.1988 170.086C38.2424 167.45 38.3007 165.295 38.3153 165.295C38.3298 165.295 38.5919 165.659 38.8832 166.096Z" fill="#F2F2F2"/>
<path d="M946.68 70.2182C947.22 70.3232 947.834 70.5031 948.029 70.6081C948.629 70.923 950.684 72.5275 950.924 72.8874C951.823 74.132 952.663 75.7066 952.903 76.5613C953.188 77.626 953.278 80.1153 953.068 81.6448C952.978 82.3796 952.993 82.4396 953.263 82.4396C953.698 82.4396 954.298 83.0994 954.298 83.5942C954.298 84.269 953.878 85.7386 953.443 86.5633C952.918 87.598 952.078 88.5877 951.748 88.5877C951.598 88.5877 951.298 88.7377 951.088 88.9176C950.744 89.2325 950.699 89.3975 950.609 90.8521C950.534 91.9317 950.564 92.5316 950.684 92.7565C950.774 92.9364 951.238 93.3263 951.718 93.6262C952.183 93.9261 953.038 94.6309 953.623 95.2008C954.777 96.3254 955.212 96.5354 957.896 97.2102C959.876 97.705 960.821 97.855 963.145 98.0349C966.984 98.3348 967.434 98.9496 968.093 104.843C968.423 107.692 968.453 109.042 968.243 110.931C968.168 111.636 968.003 113.69 967.868 115.505C967.644 118.414 967.584 118.894 967.254 119.509C967.059 119.898 966.774 120.948 966.594 121.878C966.129 124.457 965.739 126.002 965.244 127.126C964.569 128.671 964.33 130.185 964.434 132.15C964.494 133.409 964.449 134.264 964.225 135.809L963.91 137.818L964.225 138.583C964.929 140.352 965.394 146.845 965.694 158.917C965.784 162.501 965.814 165.89 965.769 166.445L965.664 167.464L964.914 167.554C964.015 167.674 963.895 167.899 963.895 169.414C963.895 169.983 963.655 171.843 963.37 173.537C962.875 176.507 962.545 177.901 961.195 182.76C960.506 185.219 960.416 185.714 959.996 189.358C959.831 190.797 959.591 192.522 959.471 193.182C959.156 194.771 959.171 195.821 959.531 198.715C960.551 206.917 960.521 206.363 960.491 217.549C960.446 229.366 960.491 228.856 959.081 233.055C958.331 235.274 958.181 235.859 958.241 236.429C958.286 236.804 958.391 237.928 958.481 238.918C958.556 239.908 958.706 241.152 958.781 241.692C959.066 243.387 958.991 244.046 958.406 245.366C957.402 247.66 957.012 248.695 956.772 249.88C956.562 250.899 956.547 251.229 956.712 252.264C956.817 252.924 957.012 253.673 957.162 253.928C957.372 254.258 957.447 254.768 957.477 255.923C957.522 257.452 957.522 257.467 957.102 257.827C956.472 258.367 956.142 258.307 955.947 257.572C955.782 257.002 955.767 256.972 955.572 257.227C955.452 257.392 955.182 258.037 954.972 258.667C954.447 260.197 954.253 260.421 953.173 260.676C951.193 261.126 948.134 261.636 947.31 261.636C945.87 261.636 939.647 260.272 939.287 259.882C939.227 259.807 939.137 259.627 939.092 259.462C939.002 259.147 939.017 259.132 941.791 255.743C942.661 254.693 945.15 250.719 945.15 250.389C945.15 250.045 944.191 250.284 942.736 250.974C939.077 252.729 936.693 252.864 929.465 251.739C927.785 251.484 926.106 250.959 926.106 250.689C926.106 250.629 926.211 250.494 926.346 250.374C926.481 250.269 926.676 249.94 926.796 249.625C927.081 248.95 927.261 248.86 930.83 247.81C936.498 246.146 939.437 243.956 940.412 240.657C940.787 239.368 940.742 239.188 939.812 238.213L938.957 237.328L939.047 236.099C939.107 235.424 939.182 234.314 939.242 233.639C939.332 232.485 939.317 232.365 938.867 231.42C938.447 230.49 938.327 229.906 937.577 224.462C936.048 213.321 935.913 212.196 935.178 205.028C934.368 197.14 933.919 193.916 932.779 187.708C932.044 183.704 930.845 176.042 930.62 173.912C930.53 173.133 930.425 171.378 930.365 170.013C930.32 168.664 930.215 167.389 930.14 167.209C930.02 166.894 929.93 166.864 928.79 166.864C927.86 166.864 927.486 166.924 927.291 167.104C927.036 167.344 927.006 167.329 926.856 166.954C926.646 166.37 926.946 160.836 927.905 147.82C928.28 142.797 928.295 142.677 928.82 139.827C929.06 138.508 929.255 137.233 929.255 136.993V136.528L927.71 136.618C921.262 137.008 920.438 137.038 919.823 136.873C919.133 136.693 918.248 135.989 917.933 135.359C917.618 134.759 917.304 132.585 917.094 129.705C916.884 126.586 916.944 126.301 918.158 124.922C918.878 124.127 919.358 123.302 920.543 120.918C922.102 117.739 922.162 117.589 923.197 112.536C923.362 111.696 923.557 111.201 923.917 110.736C924.216 110.331 924.441 109.851 924.501 109.447C924.576 108.802 925.131 107.857 925.941 106.987C926.166 106.732 928.325 105.548 931.249 104.078C933.964 102.699 936.348 101.454 936.558 101.289C937.188 100.794 937.248 100.374 936.888 99.2496C936.498 98.0349 936.573 97.4051 937.203 96.6253C938.027 95.5757 938.012 95.4857 936.633 91.8867C936.018 90.2822 935.583 89.3825 935.223 88.9626C934.743 88.4228 934.683 88.2428 934.578 87.0882C934.503 86.3834 934.458 85.3037 934.458 84.6889C934.473 83.1144 934.773 77.0862 934.878 76.3664C934.998 75.5866 935.598 74.5669 936.123 74.252C936.363 74.1171 936.708 73.7122 936.903 73.3373C937.473 72.2576 938.522 71.4329 940.007 70.893C942.511 69.9933 944.505 69.7834 946.68 70.2182Z" fill="#F2F2F2"/>
<rect x="32" y="184" width="18" height="926" transform="rotate(-90 32 184)" fill="url(#paint0_linear)"/>
<path d="M260.178 86.2051V232H241.006V123.286L192.548 232H179.064L130.395 123.075V232H111.223V86.2051H131.87L185.806 206.718L239.741 86.2051H260.178ZM359.27 233.475C345.645 233.475 333.215 230.315 321.978 223.994C310.742 217.533 301.823 208.614 295.221 197.237C288.76 185.719 285.53 172.797 285.53 158.47C285.53 144.144 288.76 131.292 295.221 119.915C301.823 108.397 310.742 99.4783 321.978 93.1577C333.215 86.6967 345.645 83.4662 359.27 83.4662C373.035 83.4662 385.535 86.6967 396.772 93.1577C408.008 99.4783 416.857 108.327 423.318 119.704C429.779 131.081 433.01 144.003 433.01 158.47C433.01 172.938 429.779 185.86 423.318 197.237C416.857 208.614 408.008 217.533 396.772 223.994C385.535 230.315 373.035 233.475 359.27 233.475ZM359.27 216.831C369.523 216.831 378.723 214.443 386.87 209.667C395.157 204.892 401.618 198.08 406.253 189.231C411.028 180.382 413.416 170.128 413.416 158.47C413.416 146.672 411.028 136.419 406.253 127.71C401.618 118.861 395.227 112.049 387.08 107.274C378.934 102.498 369.664 100.11 359.27 100.11C348.876 100.11 339.606 102.498 331.459 107.274C323.313 112.049 316.852 118.861 312.076 127.71C307.441 136.419 305.123 146.672 305.123 158.47C305.123 170.128 307.441 180.382 312.076 189.231C316.852 198.08 323.313 204.892 331.459 209.667C339.746 214.443 349.016 216.831 359.27 216.831ZM504.039 85.1517C520.051 85.1517 533.886 88.1715 545.544 94.2112C557.343 100.11 566.332 108.608 572.512 119.704C578.833 130.8 581.993 143.863 581.993 158.892C581.993 173.921 578.833 186.983 572.512 198.08C566.332 209.035 557.343 217.463 545.544 223.362C533.886 229.121 520.051 232 504.039 232H458.32V85.1517H504.039ZM504.039 216.199C523.001 216.199 537.468 211.212 547.441 201.24C557.413 191.127 562.399 177.011 562.399 158.892C562.399 140.632 557.343 126.376 547.23 116.123C537.257 105.869 522.86 100.742 504.039 100.742H477.493V216.199H504.039ZM694.085 199.344H630.036L618.238 232H598.012L651.105 85.9944H673.227L726.109 232H705.883L694.085 199.344ZM688.607 183.753L662.06 109.591L635.514 183.753H688.607ZM860.491 127.71C856.417 119.142 850.518 112.541 842.793 107.906C835.068 103.13 826.079 100.742 815.825 100.742C805.572 100.742 796.302 103.13 788.015 107.906C779.868 112.541 773.407 119.283 768.631 128.132C763.996 136.84 761.679 146.953 761.679 158.47C761.679 169.988 763.996 180.101 768.631 188.809C773.407 197.518 779.868 204.26 788.015 209.035C796.302 213.67 805.572 215.988 815.825 215.988C830.152 215.988 841.95 211.704 851.221 203.136C860.491 194.568 865.898 182.98 867.443 168.373H808.873V152.782H887.88V167.53C886.756 179.609 882.964 190.705 876.503 200.818C870.042 210.791 861.544 218.727 851.01 224.626C840.476 230.385 828.747 233.264 815.825 233.264C802.201 233.264 789.77 230.104 778.534 223.783C767.297 217.322 758.378 208.403 751.777 197.026C745.316 185.649 742.085 172.797 742.085 158.47C742.085 144.144 745.316 131.292 751.777 119.915C758.378 108.397 767.297 99.4783 778.534 93.1577C789.77 86.6967 802.201 83.4662 815.825 83.4662C831.416 83.4662 845.181 87.3287 857.12 95.0539C869.199 102.779 877.978 113.665 883.456 127.71H860.491Z" fill="white"/>
<defs>
<linearGradient id="paint0_linear" x1="41" y1="184" x2="41" y2="1110" gradientUnits="userSpaceOnUse">
<stop stop-color="#F2F2F2"/>
<stop offset="0.489583" stop-color="white"/>
<stop offset="1" stop-color="#F2F2F2"/>
</linearGradient>
</defs>
</svg>
